<svg xmlns="http://www.w3.org/2000/svg" viewBox="0 0 1200 800" role="img" aria-label="Abstract tech grid for experiments pillar">
  <defs>
    <linearGradient id="g3" x1="0" y1="0" x2="1" y2="1">
      <stop offset="0%" stop-color="#111827"/>
      <stop offset="55%" stop-color="#6d28d9"/>
      <stop offset="100%" stop-color="#22d3ee"/>
    </linearGradient>
  </defs>
  <rect width="1200" height="800" fill="url(#g3)"/>
  <g stroke="#e0f2fe" stroke-opacity="0.22">
    <path d="M0 120 H1200"/>
    <path d="M0 240 H1200"/>
    <path d="M0 360 H1200"/>
    <path d="M0 480 H1200"/>
    <path d="M0 600 H1200"/>
    <path d="M200 0 V800"/>
    <path d="M400 0 V800"/>
    <path d="M600 0 V800"/>
    <path d="M800 0 V800"/>
    <path d="M1000 0 V800"/>
  </g>
  <g fill="#ffffff" fill-opacity="0.2">
    <circle cx="310" cy="220" r="24"/>
    <circle cx="760" cy="320" r="18"/>
    <circle cx="560" cy="530" r="28"/>
    <circle cx="940" cy="170" r="16"/>
  </g>
  <path d="M180 620 C360 470, 510 700, 700 520 S1020 560, 1120 430" fill="none" stroke="#f5f3ff" stroke-opacity="0.65" stroke-width="12" stroke-linecap="round"/>
</svg>
